<svg width="375" height="87" viewBox="0 0 375 87" fill="none" xmlns="http://www.w3.org/2000/svg">
<path d="M349.452 64.8146L332.306 63.4037L339.189 86.4503L349.452 64.8146Z" fill="#ECEEF5" fill-opacity="0.9"/>
<path d="M68.5512 47.4109L85.6973 45L78.8137 69.0466L68.5512 47.4109Z" fill="#ECEEF5" fill-opacity="0.9"/>
<path d="M313.341 60.5043L307.528 77.1643L300.918 57.7672L313.341 60.5043Z" fill="#ECEEF5" fill-opacity="0.9"/>
<path d="M240.445 31.2001L221.973 39.2762L229.197 22.5L240.445 31.2001Z" fill="#ECEEF5" fill-opacity="0.9"/>
<path d="M179.697 14.5L177.608 36.7433L167.191 19.7938L179.697 14.5Z" fill="#ECEEF5" fill-opacity="0.9"/>
<path d="M266.697 46L270.317 69.027L279.197 51L266.697 46Z" fill="#ECEEF5" fill-opacity="0.9"/>
<path d="M36.6973 49L25.5312 73.3484L15.6973 45.5L26.1973 47.5L36.6973 49Z" fill="#ECEEF5" fill-opacity="0.9"/>
<path d="M136.081 31.3389L136.122 56.4076L121.424 36.0414L136.081 31.3389Z" fill="#ECEEF5" fill-opacity="0.9"/>
<path d="M362.633 65.1505C372.109 65.1505 377.874 64.611 378 64.5984L377.894 63.5113C377.615 63.5388 349.567 66.1598 314.899 59.6888C282.94 53.7234 238.652 38.5877 209.156 0.358201L208.879 0L208.476 0.205382C208.096 0.399016 169.911 19.7433 125.096 33.7682C98.7941 41.9992 75.391 46.8142 55.5367 48.0792C30.7908 49.6569 11.5459 45.6919 -1.67044 36.2979L-2.3027 37.1888C11.1247 46.7323 30.6133 50.7627 55.613 49.169C75.5558 47.8976 99.0473 43.0655 125.435 34.8067C167.858 21.5289 204.348 3.49557 208.567 1.38213C221.655 18.2291 238.654 32.0356 259.099 42.4196C275.558 50.7797 294.275 56.9528 314.729 60.7682C330.532 63.6766 346.566 65.1435 362.633 65.1505Z" fill="#6F85DC"/>
</svg>
