<svg width="1441" height="302" viewBox="0 0 1441 302" fill="none" xmlns="http://www.w3.org/2000/svg">
<path d="M468.5 118.5L482.048 156.5L498.263 109.45L482.048 114.805L468.5 118.5Z" fill="#ECEEF5" fill-opacity="0.9"/>
<path d="M670.5 50.9997L695 42.4997L682.5 83.4998L670.5 50.9997Z" fill="#ECEEF5" fill-opacity="0.9"/>
<path d="M758.5 17.4998L744 56.4998L737.954 25.2813L758.5 17.4998Z" fill="#ECEEF5" fill-opacity="0.9"/>
<path d="M141.043 166.101L172.189 169.045L156 207L141.043 166.101Z" fill="#ECEEF5" fill-opacity="0.9"/>
<path d="M400.413 140.228L428.5 132.5L417 173.5L400.413 140.228Z" fill="#ECEEF5" fill-opacity="0.9"/>
<path d="M303.369 161.389L287.441 203.177L272.13 165.444L303.369 161.389Z" fill="#ECEEF5" fill-opacity="0.9"/>
<path d="M569.56 86.0773L551.5 133.5L537.192 97.2516L569.56 86.0773Z" fill="#ECEEF5" fill-opacity="0.9"/>
<path d="M372 147L356 190L338.5 154L372 147Z" fill="#ECEEF5" fill-opacity="0.9"/>
<path d="M12.7837 132L18.5 171L34.3361 142.278L12.7837 132Z" fill="#ECEEF5" fill-opacity="0.9"/>
<path d="M103.496 162.168L85.2739 202L67.1243 153L85.2739 158.022L103.496 162.168Z" fill="#ECEEF5" fill-opacity="0.9"/>
<path d="M200.068 169.869L216 211L229 169.869L200.068 169.869Z" fill="#ECEEF5" fill-opacity="0.9"/>
<path d="M637.279 63.0408L622.835 103.316L613.185 71.3522L637.279 63.0408Z" fill="#ECEEF5" fill-opacity="0.9"/>
<path d="M1080.13 182.186L1062.59 218.516L1051.51 170L1067.06 177.061L1080.13 182.186Z" fill="#ECEEF5" fill-opacity="0.9"/>
<path d="M903.173 87.7698L882.586 72.0001L887 115.5L903.173 87.7698Z" fill="#ECEEF5" fill-opacity="0.9"/>
<path d="M832.596 33.0002L836.5 75L849.078 47.5266L832.596 33.0002Z" fill="#ECEEF5" fill-opacity="0.9"/>
<path d="M1359.43 231.427L1328.17 230.435L1345.5 268L1359.43 231.427Z" fill="#ECEEF5" fill-opacity="0.9"/>
<path d="M1131.47 200.003L1103.46 192L1114.56 233.111L1131.47 200.003Z" fill="#ECEEF5" fill-opacity="0.9"/>
<path d="M1218.16 216.659L1230.5 255.5L1247.6 222L1218.16 216.659Z" fill="#ECEEF5" fill-opacity="0.9"/>
<path d="M989.646 142.177L999 192.5L1019 157.5L989.646 142.177Z" fill="#ECEEF5" fill-opacity="0.9"/>
<path d="M1157 205.466L1169.42 249.633L1189.61 212.682L1157 205.466Z" fill="#ECEEF5" fill-opacity="0.9"/>
<path d="M1383.41 229.832L1402.09 268.5L1420.39 229.466L1402.09 229.467L1383.41 229.832Z" fill="#ECEEF5" fill-opacity="0.9"/>
<path d="M1307.61 227.612L1291.72 266.5L1278.79 225.104L1307.61 227.612Z" fill="#ECEEF5" fill-opacity="0.9"/>
<path d="M932.602 109L937.5 152L953.593 123.456L932.602 109Z" fill="#ECEEF5" fill-opacity="0.9"/>
<path d="M1 124C80 171 211 191 406.5 137.5C557.413 96.2014 799.5 1.99976 799.5 1.99976C799.5 1.99976 916.128 123.703 1078 182C1221 233.5 1354 233 1440.5 229" stroke="#6F85DC" stroke-width="3"/>
</svg>
