<svg width="330" height="172" viewBox="0 0 330 172" fill="none" xmlns="http://www.w3.org/2000/svg">
<path opacity="0.5" d="M329.11 66.0828C328.502 65.8176 328.013 65.3383 327.735 64.7362C327.458 64.1341 327.411 63.4511 327.605 62.817C327.636 62.7203 327.656 62.6203 327.665 62.5189C327.709 62.2183 327.649 61.9115 327.494 61.65C327.339 61.3885 327.099 61.1882 326.814 61.0826C326.529 60.977 326.216 60.9725 325.928 61.07C325.64 61.1675 325.394 61.361 325.232 61.618V61.618C325.171 61.7002 325.12 61.7891 325.08 61.883C324.815 62.4903 324.337 62.9795 323.736 63.258C323.135 63.5364 322.453 63.5845 321.818 63.3933C321.721 63.3621 321.621 63.3421 321.52 63.3337V63.3337C321.219 63.2892 320.912 63.3494 320.65 63.5042C320.389 63.659 320.188 63.899 320.083 64.1839C319.977 64.4689 319.973 64.7815 320.07 65.0693C320.168 65.3571 320.361 65.6027 320.618 65.7648C320.701 65.8257 320.79 65.8768 320.884 65.9172C321.492 66.1824 321.981 66.6617 322.258 67.2638C322.536 67.8659 322.582 68.5489 322.388 69.183C322.357 69.2797 322.337 69.3798 322.329 69.4811C322.284 69.7817 322.344 70.0885 322.499 70.35C322.654 70.6115 322.894 70.8119 323.179 70.9175C323.465 71.0231 323.777 71.0275 324.065 70.93C324.353 70.8325 324.599 70.639 324.761 70.382V70.382C324.822 70.2998 324.873 70.2109 324.914 70.117C325.179 69.5095 325.659 69.0206 326.261 68.7434C326.864 68.4661 327.547 68.4198 328.182 68.6133C328.279 68.6445 328.379 68.6645 328.48 68.6729V68.6729C328.781 68.7174 329.088 68.6572 329.35 68.5024C329.611 68.3476 329.812 68.1077 329.917 67.8227C330.023 67.5377 330.027 67.2252 329.93 66.9373C329.832 66.6495 329.639 66.4039 329.382 66.2418V66.2418C329.298 66.1782 329.206 66.1248 329.11 66.0828V66.0828Z" fill="#FFEE58"/>
<path opacity="0.5" d="M28.1164 40.0862C27.5085 39.8208 27.0193 39.3412 26.7419 38.7387C26.4644 38.1362 26.4181 37.4527 26.6117 36.8182C26.643 36.7214 26.663 36.6213 26.6713 36.5199C26.7159 36.2191 26.6557 35.9121 26.5008 35.6504C26.3459 35.3888 26.1057 35.1883 25.8206 35.0826C25.5354 34.9769 25.2226 34.9725 24.9346 35.0701C24.6466 35.1676 24.4009 35.3612 24.2386 35.6184V35.6184C24.1777 35.7006 24.1266 35.7896 24.0862 35.8836C23.8208 36.4915 23.3412 36.9807 22.7387 37.2581C22.1361 37.5356 21.4527 37.5819 20.8182 37.3883C20.7214 37.357 20.6213 37.337 20.5199 37.3287V37.3287C20.2191 37.2841 19.9121 37.3443 19.6504 37.4992C19.3888 37.6541 19.1883 37.8943 19.0826 38.1794C18.9769 38.4646 18.9725 38.7774 19.0701 39.0654C19.1676 39.3534 19.3612 39.5991 19.6184 39.7614C19.7006 39.8223 19.7896 39.8734 19.8836 39.9138C20.4915 40.1792 20.9807 40.6588 21.2581 41.2613C21.5356 41.8639 21.5819 42.5473 21.3883 43.1818C21.357 43.2786 21.337 43.3787 21.3286 43.4801V43.4801C21.2841 43.7809 21.3443 44.0879 21.4992 44.3496C21.6541 44.6112 21.8943 44.8117 22.1794 44.9174C22.4646 45.0231 22.7774 45.0275 23.0654 44.9299C23.3534 44.8324 23.5991 44.6388 23.7614 44.3816V44.3816C23.8223 44.2994 23.8734 44.2104 23.9138 44.1164C24.1792 43.5085 24.6588 43.0193 25.2613 42.7419C25.8638 42.4644 26.5473 42.4181 27.1818 42.6117C27.2786 42.643 27.3787 42.663 27.4801 42.6714C27.7809 42.7159 28.0879 42.6557 28.3496 42.5008C28.6112 42.3459 28.8117 42.1057 28.9174 41.8206C29.0231 41.5354 29.0275 41.2226 28.9299 40.9346C28.8324 40.6466 28.6388 40.4009 28.3816 40.2386V40.2386C28.2994 40.1777 28.2104 40.1266 28.1164 40.0862Z" fill="#FFEE58"/>
<path opacity="0.5" d="M218.116 153.086C217.509 152.821 217.019 152.341 216.742 151.739C216.464 151.136 216.418 150.453 216.612 149.818C216.643 149.721 216.663 149.621 216.671 149.52C216.716 149.219 216.656 148.912 216.501 148.65C216.346 148.389 216.106 148.188 215.821 148.083C215.535 147.977 215.223 147.973 214.935 148.07C214.647 148.168 214.401 148.361 214.239 148.618V148.618C214.178 148.701 214.127 148.79 214.086 148.884C213.821 149.491 213.341 149.981 212.739 150.258C212.136 150.536 211.453 150.582 210.818 150.388C210.721 150.357 210.621 150.337 210.52 150.329V150.329C210.219 150.284 209.912 150.344 209.65 150.499C209.389 150.654 209.188 150.894 209.083 151.179C208.977 151.465 208.973 151.777 209.07 152.065C209.168 152.353 209.361 152.599 209.618 152.761C209.701 152.822 209.79 152.873 209.884 152.914C210.491 153.179 210.981 153.659 211.258 154.261C211.536 154.864 211.582 155.547 211.388 156.182C211.357 156.279 211.337 156.379 211.329 156.48V156.48C211.284 156.781 211.344 157.088 211.499 157.35C211.654 157.611 211.894 157.812 212.179 157.917C212.465 158.023 212.777 158.027 213.065 157.93C213.353 157.832 213.599 157.639 213.761 157.382V157.382C213.822 157.299 213.873 157.21 213.914 157.116C214.179 156.509 214.659 156.019 215.261 155.742C215.864 155.464 216.547 155.418 217.182 155.612C217.279 155.643 217.379 155.663 217.48 155.671C217.781 155.716 218.088 155.656 218.35 155.501C218.611 155.346 218.812 155.106 218.917 154.821C219.023 154.535 219.027 154.223 218.93 153.935C218.832 153.647 218.639 153.401 218.382 153.239V153.239C218.299 153.178 218.21 153.127 218.116 153.086Z" fill="#FFEE58"/>
<path opacity="0.5" d="M121.116 109.086C120.508 108.821 120.019 108.341 119.742 107.739C119.464 107.136 119.418 106.453 119.612 105.818C119.643 105.721 119.663 105.621 119.671 105.52C119.716 105.219 119.656 104.912 119.501 104.65C119.346 104.389 119.106 104.188 118.821 104.083C118.535 103.977 118.223 103.973 117.935 104.07C117.647 104.168 117.401 104.361 117.239 104.618V104.618C117.178 104.701 117.127 104.79 117.086 104.884C116.821 105.492 116.341 105.981 115.739 106.258C115.136 106.536 114.453 106.582 113.818 106.388C113.721 106.357 113.621 106.337 113.52 106.329V106.329C113.219 106.284 112.912 106.344 112.65 106.499C112.389 106.654 112.188 106.894 112.083 107.179C111.977 107.465 111.973 107.777 112.07 108.065C112.168 108.353 112.361 108.599 112.618 108.761C112.701 108.822 112.79 108.873 112.884 108.914C113.491 109.179 113.981 109.659 114.258 110.261C114.536 110.864 114.582 111.547 114.388 112.182C114.357 112.279 114.337 112.379 114.329 112.48V112.48C114.284 112.781 114.344 113.088 114.499 113.35C114.654 113.611 114.894 113.812 115.179 113.917C115.465 114.023 115.777 114.027 116.065 113.93C116.353 113.832 116.599 113.639 116.761 113.382V113.382C116.822 113.299 116.873 113.21 116.914 113.116C117.179 112.508 117.659 112.019 118.261 111.742C118.864 111.464 119.547 111.418 120.182 111.612C120.279 111.643 120.379 111.663 120.48 111.671C120.781 111.716 121.088 111.656 121.35 111.501C121.611 111.346 121.812 111.106 121.917 110.821C122.023 110.535 122.027 110.223 121.93 109.935C121.832 109.647 121.639 109.401 121.382 109.239V109.239C121.299 109.178 121.21 109.127 121.116 109.086Z" fill="#FFEE58"/>
<path opacity="0.5" d="M181 104C184.314 104 187 101.314 187 98C187 94.6863 184.314 92 181 92C177.686 92 175 94.6863 175 98C175 101.314 177.686 104 181 104Z" fill="#F55F44"/>
<path opacity="0.5" d="M36 160C39.3137 160 42 157.314 42 154C42 150.686 39.3137 148 36 148C32.6863 148 30 150.686 30 154C30 157.314 32.6863 160 36 160Z" fill="#F55F44"/>
<path opacity="0.5" d="M75.5 75C77.9853 75 80 72.9853 80 70.5C80 68.0147 77.9853 66 75.5 66C73.0147 66 71 68.0147 71 70.5C71 72.9853 73.0147 75 75.5 75Z" fill="#F55F44"/>
<path opacity="0.5" d="M107.5 172C109.985 172 112 169.985 112 167.5C112 165.015 109.985 163 107.5 163C105.015 163 103 165.015 103 167.5C103 169.985 105.015 172 107.5 172Z" fill="#F55F44"/>
<path opacity="0.5" d="M270.5 114C272.985 114 275 111.985 275 109.5C275 107.015 272.985 105 270.5 105C268.015 105 266 107.015 266 109.5C266 111.985 268.015 114 270.5 114Z" fill="#F55F44"/>
<path opacity="0.5" d="M177.5 9C179.985 9 182 6.98528 182 4.5C182 2.01472 179.985 0 177.5 0C175.015 0 173 2.01472 173 4.5C173 6.98528 175.015 9 177.5 9Z" fill="#F55F44"/>
<path opacity="0.5" d="M325.491 143.687L323.954 142.107L315 150.813L316.536 152.393L325.491 143.687Z" fill="#47E6B1"/>
<path opacity="0.5" d="M323.803 152.491L325.383 150.954L316.678 142L315.098 143.536L323.803 152.491Z" fill="#47E6B1"/>
<path opacity="0.5" d="M238.491 72.6874L236.954 71.1072L228 79.8127L229.536 81.3928L238.491 72.6874Z" fill="#47E6B1"/>
<path opacity="0.5" d="M236.803 81.4905L238.383 79.9543L229.678 71L228.098 72.5363L236.803 81.4905Z" fill="#47E6B1"/>
<path opacity="0.5" d="M139.491 42.6874L137.954 41.1072L129 49.8127L130.536 51.3928L139.491 42.6874Z" fill="#47E6B1"/>
<path opacity="0.5" d="M137.803 51.4905L139.383 49.9543L130.678 41L129.098 42.5363L137.803 51.4905Z" fill="#47E6B1"/>
<path opacity="0.5" d="M10.4905 110.687L8.95428 109.107L2.96113e-06 117.813L1.53626 119.393L10.4905 110.687Z" fill="#47E6B1"/>
<path opacity="0.5" d="M8.80331 119.491L10.3835 117.954L1.67805 109L0.0978721 110.536L8.80331 119.491Z" fill="#47E6B1"/>
</svg>
