<svg width="1372" height="655" viewBox="0 0 1372 655" fill="none" xmlns="http://www.w3.org/2000/svg">
<path opacity="0.6" d="M975.85 147.686C980.738 147.686 984.7 143.727 984.7 138.843C984.7 133.959 980.738 130 975.85 130C970.962 130 967 133.959 967 138.843C967 143.727 970.962 147.686 975.85 147.686Z" fill="#F55F44"/>
<path opacity="0.6" d="M1259.8 568.581C1266.32 568.581 1271.6 563.303 1271.6 556.791C1271.6 550.279 1266.32 545 1259.8 545C1253.28 545 1248 550.279 1248 556.791C1248 563.303 1253.28 568.581 1259.8 568.581Z" fill="#F55F44"/>
<path opacity="0.6" d="M1289.92 191.988C1288.72 191.467 1287.76 190.525 1287.21 189.342C1286.67 188.159 1286.58 186.817 1286.96 185.571C1287.02 185.381 1287.06 185.184 1287.07 184.985C1287.16 184.394 1287.04 183.791 1286.74 183.277C1286.43 182.763 1285.96 182.37 1285.4 182.162C1284.84 181.955 1284.22 181.946 1283.66 182.138C1283.09 182.329 1282.61 182.709 1282.29 183.215V183.215C1282.17 183.376 1282.07 183.551 1281.99 183.735C1281.47 184.929 1280.53 185.89 1279.35 186.437C1278.17 186.984 1276.82 187.079 1275.58 186.703C1275.39 186.642 1275.19 186.602 1274.99 186.586V186.586C1274.4 186.499 1273.79 186.617 1273.28 186.921C1272.76 187.225 1272.37 187.697 1272.16 188.257C1271.95 188.817 1271.95 189.431 1272.14 189.997C1272.33 190.562 1272.71 191.045 1273.22 191.363C1273.38 191.483 1273.55 191.583 1273.74 191.663C1274.93 192.184 1275.9 193.126 1276.44 194.309C1276.99 195.492 1277.08 196.835 1276.7 198.081C1276.64 198.271 1276.6 198.467 1276.58 198.666C1276.49 199.257 1276.61 199.86 1276.92 200.374C1277.22 200.888 1277.69 201.281 1278.25 201.489C1278.81 201.696 1279.43 201.705 1280 201.514C1280.56 201.322 1281.04 200.942 1281.36 200.437V200.437C1281.48 200.275 1281.58 200.101 1281.66 199.916C1282.19 198.722 1283.13 197.761 1284.31 197.217C1285.5 196.672 1286.84 196.581 1288.09 196.961C1288.28 197.022 1288.48 197.062 1288.68 197.078V197.078C1289.27 197.166 1289.87 197.047 1290.39 196.743C1290.9 196.439 1291.3 195.967 1291.5 195.407C1291.71 194.847 1291.72 194.233 1291.53 193.668C1291.34 193.102 1290.96 192.619 1290.45 192.301V192.301C1290.29 192.176 1290.11 192.071 1289.92 191.988V191.988Z" fill="#FFEE58"/>
<path opacity="0.6" d="M403.85 548.686C408.738 548.686 412.7 544.727 412.7 539.843C412.7 534.959 408.738 531 403.85 531C398.962 531 395 534.959 395 539.843C395 544.727 398.962 548.686 403.85 548.686Z" fill="#F55F44"/>
<path opacity="0.6" d="M1147.85 285.686C1152.74 285.686 1156.7 281.727 1156.7 276.843C1156.7 271.959 1152.74 268 1147.85 268C1142.96 268 1139 271.959 1139 276.843C1139 281.727 1142.96 285.686 1147.85 285.686Z" fill="#F55F44"/>
<path opacity="0.6" d="M114.929 208.774C113.733 208.252 112.771 207.31 112.226 206.126C111.68 204.942 111.589 203.599 111.97 202.352C112.031 202.162 112.071 201.965 112.087 201.766C112.175 201.175 112.056 200.571 111.752 200.057C111.447 199.543 110.975 199.149 110.414 198.941C109.853 198.734 109.238 198.725 108.671 198.917C108.105 199.108 107.622 199.489 107.303 199.994V199.994C107.183 200.156 107.082 200.331 107.003 200.515C106.481 201.71 105.538 202.671 104.353 203.217C103.168 203.762 101.824 203.853 100.576 203.472C100.385 203.411 100.189 203.372 99.9892 203.355V203.355C99.3976 203.268 98.7939 203.386 98.2792 203.69C97.7646 203.995 97.3703 204.467 97.1625 205.027C96.9547 205.587 96.9459 206.202 97.1378 206.768C97.3297 207.334 97.7104 207.817 98.2163 208.136C98.3779 208.255 98.5529 208.356 98.7377 208.435C99.9333 208.957 100.895 209.899 101.441 211.083C101.987 212.267 102.078 213.61 101.697 214.857C101.635 215.047 101.596 215.244 101.58 215.443V215.443C101.492 216.035 101.611 216.638 101.915 217.152C102.22 217.666 102.692 218.06 103.253 218.268C103.814 218.476 104.429 218.484 104.995 218.293C105.562 218.101 106.045 217.72 106.364 217.215V217.215C106.484 217.053 106.584 216.879 106.664 216.694C107.186 215.499 108.129 214.538 109.314 213.993C110.499 213.448 111.843 213.357 113.091 213.737C113.281 213.798 113.478 213.838 113.677 213.854C114.269 213.942 114.873 213.823 115.387 213.519C115.902 213.215 116.296 212.743 116.504 212.182C116.712 211.622 116.721 211.007 116.529 210.441C116.337 209.875 115.956 209.392 115.45 209.074V209.074C115.289 208.954 115.114 208.853 114.929 208.774Z" fill="#FFEE58"/>
<path opacity="0.6" d="M1136.93 419.995C1135.73 419.473 1134.77 418.531 1134.23 417.347C1133.68 416.163 1133.59 414.82 1133.97 413.573C1134.03 413.383 1134.07 413.186 1134.09 412.987C1134.17 412.396 1134.06 411.792 1133.75 411.278C1133.45 410.764 1132.97 410.37 1132.41 410.162C1131.85 409.955 1131.24 409.946 1130.67 410.138C1130.11 410.329 1129.62 410.71 1129.3 411.215V411.215C1129.18 411.377 1129.08 411.552 1129 411.736C1128.48 412.931 1127.54 413.892 1126.35 414.438C1125.17 414.983 1123.82 415.074 1122.58 414.693C1122.39 414.632 1122.19 414.593 1121.99 414.576V414.576C1121.4 414.489 1120.79 414.607 1120.28 414.911C1119.76 415.216 1119.37 415.688 1119.16 416.248C1118.95 416.808 1118.95 417.423 1119.14 417.989C1119.33 418.555 1119.71 419.038 1120.22 419.357C1120.38 419.476 1120.55 419.577 1120.74 419.656C1121.93 420.178 1122.9 421.12 1123.44 422.304C1123.99 423.488 1124.08 424.831 1123.7 426.078C1123.64 426.268 1123.6 426.465 1123.58 426.664V426.664C1123.49 427.255 1123.61 427.859 1123.92 428.373C1124.22 428.887 1124.69 429.281 1125.25 429.489C1125.81 429.696 1126.43 429.705 1127 429.513C1127.56 429.322 1128.04 428.941 1128.36 428.436V428.436C1128.48 428.274 1128.58 428.1 1128.66 427.915C1129.19 426.72 1130.13 425.759 1131.31 425.214C1132.5 424.668 1133.84 424.577 1135.09 424.958C1135.28 425.019 1135.48 425.059 1135.68 425.075C1136.27 425.163 1136.87 425.044 1137.39 424.74C1137.9 424.435 1138.3 423.964 1138.5 423.403C1138.71 422.843 1138.72 422.228 1138.53 421.662C1138.34 421.096 1137.96 420.613 1137.45 420.294V420.294C1137.29 420.175 1137.11 420.074 1136.93 419.995Z" fill="#FFEE58"/>
<path opacity="0.6" d="M852.929 153.995C851.733 153.473 850.771 152.531 850.226 151.347C849.68 150.163 849.589 148.82 849.97 147.573C850.031 147.383 850.071 147.186 850.087 146.987C850.175 146.396 850.056 145.792 849.752 145.278C849.447 144.764 848.975 144.37 848.414 144.162C847.853 143.955 847.238 143.946 846.671 144.138C846.105 144.329 845.622 144.71 845.303 145.215V145.215C845.183 145.377 845.082 145.552 845.003 145.736C844.481 146.931 843.538 147.892 842.353 148.438C841.168 148.983 839.824 149.074 838.576 148.693C838.385 148.632 838.189 148.593 837.989 148.576V148.576C837.398 148.489 836.794 148.607 836.279 148.911C835.765 149.216 835.37 149.688 835.162 150.248C834.955 150.808 834.946 151.423 835.138 151.989C835.33 152.555 835.71 153.038 836.216 153.357C836.378 153.476 836.553 153.577 836.738 153.656C837.933 154.178 838.895 155.12 839.441 156.304C839.987 157.488 840.078 158.831 839.697 160.078C839.635 160.268 839.596 160.465 839.58 160.664V160.664C839.492 161.255 839.611 161.859 839.915 162.373C840.22 162.887 840.692 163.281 841.253 163.489C841.814 163.696 842.429 163.705 842.995 163.513C843.562 163.322 844.045 162.941 844.364 162.436V162.436C844.484 162.274 844.584 162.1 844.664 161.915C845.186 160.72 846.129 159.759 847.314 159.214C848.499 158.668 849.843 158.577 851.091 158.958C851.281 159.019 851.478 159.059 851.677 159.075C852.269 159.163 852.873 159.044 853.387 158.74C853.902 158.435 854.296 157.964 854.504 157.403C854.712 156.843 854.721 156.228 854.529 155.662C854.337 155.096 853.956 154.613 853.45 154.294V154.294C853.289 154.175 853.114 154.074 852.929 153.995Z" fill="#FFEE58"/>
<path opacity="0.6" d="M244.929 399.995C243.733 399.473 242.771 398.531 242.226 397.347C241.68 396.163 241.589 394.82 241.97 393.573C242.031 393.383 242.071 393.186 242.087 392.987C242.175 392.396 242.056 391.792 241.752 391.278C241.447 390.764 240.975 390.37 240.414 390.162C239.853 389.955 239.238 389.946 238.671 390.138C238.105 390.329 237.622 390.71 237.303 391.215V391.215C237.183 391.377 237.082 391.552 237.003 391.736C236.481 392.931 235.538 393.892 234.353 394.438C233.168 394.983 231.824 395.074 230.576 394.693C230.385 394.632 230.189 394.592 229.989 394.576V394.576C229.398 394.488 228.794 394.607 228.279 394.911C227.765 395.216 227.37 395.688 227.162 396.248C226.955 396.808 226.946 397.423 227.138 397.989C227.33 398.555 227.71 399.038 228.216 399.357C228.378 399.476 228.553 399.577 228.738 399.656C229.933 400.178 230.895 401.12 231.441 402.304C231.987 403.488 232.078 404.831 231.697 406.078C231.635 406.268 231.596 406.465 231.58 406.664V406.664C231.492 407.256 231.61 407.859 231.915 408.373C232.22 408.887 232.692 409.281 233.253 409.489C233.814 409.696 234.429 409.705 234.995 409.513C235.562 409.322 236.045 408.941 236.364 408.436V408.436C236.484 408.274 236.584 408.1 236.664 407.915C237.186 406.72 238.129 405.759 239.314 405.214C240.499 404.669 241.843 404.578 243.091 404.958C243.281 405.019 243.478 405.059 243.677 405.075C244.269 405.163 244.873 405.044 245.387 404.74C245.902 404.436 246.296 403.964 246.504 403.403C246.712 402.843 246.721 402.228 246.529 401.662C246.337 401.096 245.956 400.613 245.45 400.295V400.295C245.289 400.175 245.114 400.074 244.929 399.995Z" fill="#FFEE58"/>
<path opacity="0.6" d="M128.8 544.581C135.317 544.581 140.6 539.303 140.6 532.791C140.6 526.279 135.317 521 128.8 521C122.283 521 117 526.279 117 532.791C117 539.303 122.283 544.581 128.8 544.581Z" fill="#F55F44"/>
<path opacity="0.6" d="M301.85 277.384C306.738 277.384 310.7 273.425 310.7 268.541C310.7 263.657 306.738 259.698 301.85 259.698C296.962 259.698 293 263.657 293 268.541C293 273.425 296.962 277.384 301.85 277.384Z" fill="#F55F44"/>
<path opacity="0.6" d="M590.85 109.686C595.738 109.686 599.7 105.727 599.7 100.843C599.7 95.9592 595.738 92 590.85 92C585.962 92 582 95.9592 582 100.843C582 105.727 585.962 109.686 590.85 109.686Z" fill="#F55F44"/>
<path opacity="0.6" d="M746.929 9.99489C745.733 9.47336 744.771 8.531 744.226 7.34695C743.68 6.16291 743.589 4.81976 743.97 3.57298C744.031 3.38273 744.071 3.18611 744.087 2.98686C744.175 2.39573 744.056 1.79245 743.752 1.2782C743.447 0.763957 742.975 0.369991 742.414 0.162342C741.853 -0.045306 741.238 -0.0540104 740.671 0.137696C740.105 0.329402 739.622 0.70981 739.303 1.21524V1.21524C739.183 1.37678 739.082 1.55166 739.003 1.73632C738.481 2.93098 737.538 3.89233 736.353 4.43752C735.168 4.98271 733.824 5.07374 732.576 4.69329C732.385 4.63185 732.189 4.59248 731.989 4.57602V4.57602C731.398 4.48849 730.794 4.60683 730.279 4.91122C729.765 5.21561 729.37 5.68752 729.162 6.24787C728.955 6.80821 728.946 7.42297 729.138 7.98896C729.33 8.55496 729.71 9.0378 730.216 9.35662C730.378 9.47626 730.553 9.57685 730.738 9.65628C731.933 10.1778 732.895 11.1202 733.441 12.3042C733.987 13.4883 734.078 14.8314 733.697 16.0782C733.635 16.2684 733.596 16.4651 733.58 16.6644V16.6644C733.492 17.2555 733.61 17.8587 733.915 18.373C734.22 18.8872 734.692 19.2812 735.253 19.4888C735.814 19.6965 736.429 19.7052 736.995 19.5135C737.562 19.3218 738.045 18.9414 738.364 18.4359V18.4359C738.484 18.2744 738.584 18.0995 738.664 17.9149C739.186 16.7202 740.129 15.7589 741.314 15.2137C742.499 14.6685 743.843 14.5775 745.091 14.958C745.281 15.0194 745.478 15.0587 745.677 15.0751C746.269 15.1627 746.873 15.0443 747.387 14.74C747.902 14.4356 748.296 13.9636 748.504 13.4033C748.712 12.843 748.721 12.2282 748.529 11.6622C748.337 11.0962 747.956 10.6134 747.45 10.2945V10.2945C747.289 10.1749 747.114 10.0743 746.929 9.99489Z" fill="#FFEE58"/>
<path opacity="0.5" d="M1371.63 372.316L1368.61 369.211L1351 386.318L1354.02 389.423L1371.63 372.316Z" fill="#47E6B1"/>
<path opacity="0.5" d="M1368.31 389.615L1371.42 386.596L1354.3 369L1351.19 372.019L1368.31 389.615Z" fill="#47E6B1"/>
<path opacity="0.5" d="M996.631 280.316L993.61 277.211L976 294.318L979.021 297.423L996.631 280.316Z" fill="#47E6B1"/>
<path opacity="0.5" d="M993.313 297.615L996.421 294.596L979.3 277L976.193 280.019L993.313 297.615Z" fill="#47E6B1"/>
<path opacity="0.5" d="M450.631 127.316L447.61 124.211L430 141.318L433.021 144.423L450.631 127.316Z" fill="#47E6B1"/>
<path opacity="0.5" d="M447.313 144.615L450.421 141.596L433.3 124L430.193 127.019L447.313 144.615Z" fill="#47E6B1"/>
<path opacity="0.5" d="M290.631 637.316L287.61 634.211L270 651.318L273.021 654.423L290.631 637.316Z" fill="#47E6B1"/>
<path opacity="0.5" d="M287.313 654.615L290.421 651.596L273.3 634L270.193 637.019L287.313 654.615Z" fill="#47E6B1"/>
<path opacity="0.5" d="M1082.63 607.316L1079.61 604.211L1062 621.318L1065.02 624.423L1082.63 607.316Z" fill="#47E6B1"/>
<path opacity="0.5" d="M1079.31 624.615L1082.42 621.596L1065.3 604L1062.19 607.019L1079.31 624.615Z" fill="#47E6B1"/>
<path opacity="0.5" d="M20.6317 347.514L17.6104 344.408L0.000265508 361.516L3.02157 364.621L20.6317 347.514Z" fill="#47E6B1"/>
<path opacity="0.5" d="M17.3132 364.813L20.4209 361.794L3.3002 344.198L0.192526 347.217L17.3132 364.813Z" fill="#47E6B1"/>
</svg>
